<svg width="468" height="102" viewBox="0 0 468 102" fill="none" xmlns="http://www.w3.org/2000/svg">
<path d="M95.227 79.008H100.347V100H50.171V79.008H57.851L55.803 68.768H38.395L36.347 79.008H44.027V100H0.250996V79.008H5.371L27.003 0.415993H73.595L95.227 79.008ZM41.211 55.2H52.987L47.739 29.728H46.459L41.211 55.2ZM173.136 101.792C168.784 101.792 164.901 100.725 161.488 98.592C158.16 96.4587 155.429 94.0267 153.296 91.296V100H118.224V79.008H123.856V21.408H118.224V0.415993H153.296V37.536C155.429 34.8053 158.16 32.3733 161.488 30.24C164.901 28.1067 168.784 27.04 173.136 27.04C181.84 27.04 188.368 30.2827 192.72 36.768C197.157 43.2533 199.376 52.4693 199.376 64.416C199.376 76.3627 197.157 85.5787 192.72 92.064C188.368 98.5493 181.84 101.792 173.136 101.792ZM160.72 79.008C163.195 79.008 165.029 78.368 166.224 77.088C167.504 75.7227 168.144 73.632 168.144 70.816V58.016C168.144 55.2 167.504 53.152 166.224 51.872C165.029 50.5067 163.195 49.824 160.72 49.824C158.245 49.824 156.368 50.5067 155.088 51.872C153.893 53.152 153.296 55.2 153.296 58.016V70.816C153.296 73.632 153.893 75.7227 155.088 77.088C156.368 78.368 158.245 79.008 160.72 79.008ZM255.198 101.792C243.081 101.792 233.609 98.6347 226.782 92.32C219.955 85.92 216.542 76.6187 216.542 64.416C216.542 52.2133 219.955 42.9547 226.782 36.64C233.609 30.24 243.081 27.04 255.198 27.04C267.486 27.04 277.001 30.2827 283.742 36.768C290.483 43.168 293.854 52.384 293.854 64.416C293.854 76.6187 290.441 85.92 283.614 92.32C276.787 98.6347 267.315 101.792 255.198 101.792ZM255.198 79.008C257.673 79.008 259.507 78.368 260.702 77.088C261.982 75.7227 262.622 73.632 262.622 70.816V58.016C262.622 55.2 261.982 53.152 260.702 51.872C259.507 50.5067 257.673 49.824 255.198 49.824C252.723 49.824 250.846 50.5067 249.566 51.872C248.371 53.152 247.774 55.2 247.774 58.016V70.816C247.774 73.632 248.371 75.7227 249.566 77.088C250.846 78.368 252.723 79.008 255.198 79.008ZM396.233 79.008V100H361.161V90.016C355.017 97.8667 347.337 101.792 338.121 101.792C331.038 101.792 325.705 99.5733 322.121 95.136C318.622 90.6987 316.873 84.5973 316.873 76.832V49.824H311.241V28.832H346.313V70.816C346.313 73.632 346.91 75.7227 348.105 77.088C349.385 78.368 351.262 79.008 353.737 79.008C356.212 79.008 358.046 78.368 359.241 77.088C360.521 75.7227 361.161 73.632 361.161 70.816V49.824H354.249V28.832H390.601V79.008H396.233ZM445.455 101.792C436.41 101.792 429.583 99.616 424.975 95.264C420.452 90.8267 418.191 83.4027 418.191 72.992V49.824H412.559V28.832C415.802 28.832 418.234 28.0213 419.855 26.4C421.476 24.6933 422.287 22.3893 422.287 19.488V13.728H449.423V28.832H466.703V49.824H449.423V70.816C449.423 73.632 450.02 75.7227 451.215 77.088C452.495 78.368 454.372 79.008 456.847 79.008C460.09 79.008 463.631 78.624 467.471 77.856V97.952C465.082 98.8907 461.839 99.744 457.743 100.512C453.732 101.365 449.636 101.792 445.455 101.792Z" fill="white"/>
</svg>
