<svg width="76" height="76" viewBox="0 0 76 76" fill="none" xmlns="http://www.w3.org/2000/svg">
<circle cx="38" cy="38" r="36" stroke="black" stroke-width="4"/>
<path d="M40.0422 15.3973C40.4544 15.0297 41.1227 15.0297 41.5349 15.3973L61.157 32.8965C61.5692 33.2641 61.5692 33.8601 61.157 34.2277L54.8611 39.8425C54.4489 40.2101 53.7806 40.2101 53.3684 39.8425L33.7463 22.3432C33.3341 21.9757 33.3341 21.3797 33.7463 21.0121L40.0422 15.3973Z" fill="#0E0000"/>
<path d="M17 34.7317C17 33.6271 17.8954 32.7317 19 32.7317H60C61.1046 32.7317 62 33.6271 62 34.7317V40.7317C62 41.8363 61.1046 42.7317 60 42.7317H19C17.8954 42.7317 17 41.8363 17 40.7317V34.7317Z" fill="#0E0000"/>
<path d="M33.7463 54.2276C33.3341 53.86 33.3341 53.264 33.7463 52.8964L53.3684 35.3972C53.7806 35.0296 54.4489 35.0296 54.8611 35.3972L61.157 41.012C61.5692 41.3796 61.5692 41.9755 61.157 42.3431L41.5349 59.8424C41.1227 60.21 40.4544 60.21 40.0423 59.8424L33.7463 54.2276Z" fill="#0E0000"/>
</svg>
