<svg width="97" height="87" viewBox="0 0 97 87" fill="none" xmlns="http://www.w3.org/2000/svg">
<g filter="url(#filter0_d_17_33)">
<mask id="path-1-outside-1_17_33" maskUnits="userSpaceOnUse" x="3" y="17" width="91" height="54" fill="black">
<rect fill="white" x="3" y="17" width="91" height="54"/>
<path d="M25.9505 65.768C22.4945 65.768 19.4225 64.936 16.7345 63.272C14.0465 61.608 11.9558 59.2827 10.4625 56.296C8.96917 53.2667 8.2225 49.832 8.2225 45.992C8.2225 41.8107 9.13983 38.0133 10.9745 34.6C12.8518 31.144 15.3905 28.4347 18.5905 26.472C21.8332 24.4667 25.3958 23.464 29.2785 23.464C32.8198 23.464 35.9558 24.296 38.6865 25.96C41.4172 27.624 43.5505 29.9493 45.0865 32.936C46.6225 35.9227 47.3905 39.336 47.3905 43.176C47.3905 47.3573 46.4305 51.176 44.5105 54.632C42.6332 58.088 40.0518 60.8187 36.7665 62.824C33.5238 64.7867 29.9185 65.768 25.9505 65.768ZM27.9345 62.504C30.6225 62.504 33.0118 61.8 35.1025 60.392C37.1932 58.984 38.8145 57.0213 39.9665 54.504C41.1185 51.9867 41.6945 49.1067 41.6945 45.864C41.6945 42.2373 41.0758 39.0373 39.8385 36.264C38.6012 33.448 36.8732 31.2507 34.6545 29.672C32.4785 28.0933 29.9612 27.304 27.1025 27.304C24.4998 27.304 22.1745 28.008 20.1265 29.416C18.1212 30.824 16.5425 32.7867 15.3905 35.304C14.2812 37.8213 13.7265 40.7013 13.7265 43.944C13.7265 47.5707 14.3238 50.792 15.5185 53.608C16.7132 56.3813 18.3772 58.5573 20.5105 60.136C22.6865 61.7147 25.1612 62.504 27.9345 62.504ZM67.703 65.768C63.223 65.768 59.767 64.552 57.335 62.12C54.903 59.6453 53.687 56.1467 53.687 51.624V30.44C53.687 29.0747 53.5163 28.1573 53.175 27.688C52.8763 27.2187 52.2577 26.984 51.319 26.984C50.8923 26.984 50.4657 27.0053 50.039 27.048C49.6123 27.0907 49.3137 27.112 49.143 27.112L49.015 26.856L49.463 24.04C49.975 24.0827 50.935 24.1253 52.343 24.168C53.7937 24.2107 55.2443 24.232 56.695 24.232C57.847 24.232 59.1483 24.168 60.599 24.04C62.0497 23.8693 62.9883 23.7413 63.415 23.656L63.159 26.536C61.5803 26.7493 60.5137 27.112 59.959 27.624C59.447 28.0933 59.1483 28.9467 59.063 30.184L58.551 49C58.551 53.224 59.4683 56.4667 61.303 58.728C63.1377 60.9893 65.783 62.12 69.239 62.12C72.7377 62.12 75.4043 61.2027 77.239 59.368C79.0737 57.4907 79.991 54.8027 79.991 51.304C79.9483 47.8907 79.8843 44.008 79.799 39.656C79.7137 35.2613 79.6497 32.1893 79.607 30.44C79.5217 28.9467 79.3297 28.008 79.031 27.624C78.775 27.1973 78.1777 26.984 77.239 26.984C76.727 26.984 76.1937 27.0053 75.639 27.048C75.0843 27.0907 74.7003 27.112 74.487 27.112L74.359 26.856L74.807 24.04C75.319 24.0827 76.279 24.1253 77.687 24.168C79.1377 24.2107 80.5883 24.232 82.039 24.232C83.191 24.232 84.407 24.168 85.687 24.04C87.0097 23.8693 87.863 23.7413 88.247 23.656L87.991 26.536C86.711 26.7067 85.751 26.92 85.111 27.176C84.5137 27.3893 84.1083 27.7307 83.895 28.2C83.6817 28.6267 83.575 29.288 83.575 30.184V51.688C83.575 56.168 82.1883 59.6453 79.415 62.12C76.6417 64.552 72.7377 65.768 67.703 65.768Z"/>
</mask>
<path d="M25.9505 65.768C22.4945 65.768 19.4225 64.936 16.7345 63.272C14.0465 61.608 11.9558 59.2827 10.4625 56.296C8.96917 53.2667 8.2225 49.832 8.2225 45.992C8.2225 41.8107 9.13983 38.0133 10.9745 34.6C12.8518 31.144 15.3905 28.4347 18.5905 26.472C21.8332 24.4667 25.3958 23.464 29.2785 23.464C32.8198 23.464 35.9558 24.296 38.6865 25.96C41.4172 27.624 43.5505 29.9493 45.0865 32.936C46.6225 35.9227 47.3905 39.336 47.3905 43.176C47.3905 47.3573 46.4305 51.176 44.5105 54.632C42.6332 58.088 40.0518 60.8187 36.7665 62.824C33.5238 64.7867 29.9185 65.768 25.9505 65.768ZM27.9345 62.504C30.6225 62.504 33.0118 61.8 35.1025 60.392C37.1932 58.984 38.8145 57.0213 39.9665 54.504C41.1185 51.9867 41.6945 49.1067 41.6945 45.864C41.6945 42.2373 41.0758 39.0373 39.8385 36.264C38.6012 33.448 36.8732 31.2507 34.6545 29.672C32.4785 28.0933 29.9612 27.304 27.1025 27.304C24.4998 27.304 22.1745 28.008 20.1265 29.416C18.1212 30.824 16.5425 32.7867 15.3905 35.304C14.2812 37.8213 13.7265 40.7013 13.7265 43.944C13.7265 47.5707 14.3238 50.792 15.5185 53.608C16.7132 56.3813 18.3772 58.5573 20.5105 60.136C22.6865 61.7147 25.1612 62.504 27.9345 62.504ZM67.703 65.768C63.223 65.768 59.767 64.552 57.335 62.12C54.903 59.6453 53.687 56.1467 53.687 51.624V30.44C53.687 29.0747 53.5163 28.1573 53.175 27.688C52.8763 27.2187 52.2577 26.984 51.319 26.984C50.8923 26.984 50.4657 27.0053 50.039 27.048C49.6123 27.0907 49.3137 27.112 49.143 27.112L49.015 26.856L49.463 24.04C49.975 24.0827 50.935 24.1253 52.343 24.168C53.7937 24.2107 55.2443 24.232 56.695 24.232C57.847 24.232 59.1483 24.168 60.599 24.04C62.0497 23.8693 62.9883 23.7413 63.415 23.656L63.159 26.536C61.5803 26.7493 60.5137 27.112 59.959 27.624C59.447 28.0933 59.1483 28.9467 59.063 30.184L58.551 49C58.551 53.224 59.4683 56.4667 61.303 58.728C63.1377 60.9893 65.783 62.12 69.239 62.12C72.7377 62.12 75.4043 61.2027 77.239 59.368C79.0737 57.4907 79.991 54.8027 79.991 51.304C79.9483 47.8907 79.8843 44.008 79.799 39.656C79.7137 35.2613 79.6497 32.1893 79.607 30.44C79.5217 28.9467 79.3297 28.008 79.031 27.624C78.775 27.1973 78.1777 26.984 77.239 26.984C76.727 26.984 76.1937 27.0053 75.639 27.048C75.0843 27.0907 74.7003 27.112 74.487 27.112L74.359 26.856L74.807 24.04C75.319 24.0827 76.279 24.1253 77.687 24.168C79.1377 24.2107 80.5883 24.232 82.039 24.232C83.191 24.232 84.407 24.168 85.687 24.04C87.0097 23.8693 87.863 23.7413 88.247 23.656L87.991 26.536C86.711 26.7067 85.751 26.92 85.111 27.176C84.5137 27.3893 84.1083 27.7307 83.895 28.2C83.6817 28.6267 83.575 29.288 83.575 30.184V51.688C83.575 56.168 82.1883 59.6453 79.415 62.12C76.6417 64.552 72.7377 65.768 67.703 65.768Z" fill="#8539E8"/>
<path d="M16.7345 63.272L14.1027 67.5233L16.7345 63.272ZM10.4625 56.296L5.9778 58.5068L5.98405 58.5194L5.99036 58.5321L10.4625 56.296ZM10.9745 34.6L6.58088 32.2133L6.57561 32.2231L6.57038 32.2328L10.9745 34.6ZM18.5905 26.472L21.2046 30.7342L21.2125 30.7294L21.2203 30.7245L18.5905 26.472ZM38.6865 25.96L36.0846 30.2297L36.0847 30.2297L38.6865 25.96ZM45.0865 32.936L49.5329 30.6493L49.5329 30.6493L45.0865 32.936ZM44.5105 54.632L40.1397 52.2038L40.1282 52.2245L40.1169 52.2453L44.5105 54.632ZM36.7665 62.824L39.3555 67.1015L39.3635 67.0967L39.3715 67.0918L36.7665 62.824ZM35.1025 60.392L32.3095 56.2448L35.1025 60.392ZM39.8385 36.264L35.2609 38.2754L35.2666 38.2883L35.2723 38.3012L39.8385 36.264ZM34.6545 29.672L31.7184 33.7191L31.737 33.7326L31.7557 33.746L34.6545 29.672ZM20.1265 29.416L17.2939 25.2958L17.2735 25.3098L17.2533 25.3239L20.1265 29.416ZM15.3905 35.304L10.844 33.2234L10.8293 33.2554L10.8151 33.2877L15.3905 35.304ZM15.5185 53.608L10.9156 55.5607L10.921 55.5734L10.9264 55.5861L15.5185 53.608ZM20.5105 60.136L17.5363 64.1552L17.5553 64.1693L17.5744 64.1831L20.5105 60.136ZM25.9505 60.768C23.3346 60.768 21.1907 60.1501 19.3663 59.0207L14.1027 67.5233C17.6543 69.7219 21.6544 70.768 25.9505 70.768V60.768ZM19.3663 59.0207C17.5118 57.8727 16.0376 56.2659 14.9346 54.0599L5.99036 58.5321C7.87403 62.2994 10.5812 65.3433 14.1027 67.5233L19.3663 59.0207ZM14.9472 54.0852C13.8366 51.8323 13.2225 49.1708 13.2225 45.992H3.2225C3.2225 50.4932 4.10171 54.701 5.9778 58.5068L14.9472 54.0852ZM13.2225 45.992C13.2225 42.5698 13.9656 39.596 15.3786 36.9672L6.57038 32.2328C4.31402 36.4307 3.2225 41.0515 3.2225 45.992H13.2225ZM15.3681 36.9867C16.8477 34.2628 18.7882 32.2163 21.2046 30.7342L15.9764 22.2098C11.9928 24.6531 8.85591 28.0252 6.58088 32.2133L15.3681 36.9867ZM21.2203 30.7245C23.6577 29.2172 26.3069 28.464 29.2785 28.464V18.464C24.4848 18.464 20.0086 19.7161 15.9607 22.2195L21.2203 30.7245ZM29.2785 28.464C32.0036 28.464 34.2202 29.0936 36.0846 30.2297L41.2884 21.6903C37.6914 19.4984 33.6361 18.464 29.2785 18.464V28.464ZM36.0847 30.2297C37.9894 31.3904 39.5027 33.0112 40.6401 35.2227L49.5329 30.6493C47.5983 26.8875 44.8449 23.8576 41.2883 21.6903L36.0847 30.2297ZM40.6401 35.2227C41.7632 37.4066 42.3905 40.0167 42.3905 43.176H52.3905C52.3905 38.6553 51.4818 34.4387 49.5329 30.6493L40.6401 35.2227ZM42.3905 43.176C42.3905 46.5583 41.6231 49.5336 40.1397 52.2038L48.8813 57.0602C51.2379 52.8183 52.3905 48.1564 52.3905 43.176H42.3905ZM40.1169 52.2453C38.6501 54.9455 36.6784 57.0199 34.1615 58.5562L39.3715 67.0918C43.4252 64.6174 46.6162 61.2305 48.9041 57.0187L40.1169 52.2453ZM34.1775 58.5465C31.7531 60.0139 29.0505 60.768 25.9505 60.768V70.768C30.7865 70.768 35.2946 69.5594 39.3555 67.1015L34.1775 58.5465ZM27.9345 67.504C31.5481 67.504 34.9236 66.5407 37.8955 64.5392L32.3095 56.2448C31.1 57.0593 29.6969 57.504 27.9345 57.504V67.504ZM37.8955 64.5392C40.8238 62.5671 43.0168 59.8541 44.513 56.5846L35.42 52.4234C34.6122 54.1886 33.5625 55.4009 32.3095 56.2448L37.8955 64.5392ZM44.513 56.5846C46.0107 53.3119 46.6945 49.7028 46.6945 45.864H36.6945C36.6945 48.5105 36.2263 50.6614 35.42 52.4234L44.513 56.5846ZM46.6945 45.864C46.6945 41.6695 45.978 37.7533 44.4047 34.2268L35.2723 38.3012C36.1736 40.3213 36.6945 42.8052 36.6945 45.864H46.6945ZM44.4161 34.2526C42.8637 30.7197 40.5992 27.7653 37.5533 25.598L31.7557 33.746C33.1471 34.736 34.3386 36.1763 35.2609 38.2754L44.4161 34.2526ZM37.5906 25.6249C34.5053 23.3865 30.945 22.304 27.1025 22.304V32.304C28.9774 32.304 30.4517 32.8002 31.7184 33.7191L37.5906 25.6249ZM27.1025 22.304C23.5389 22.304 20.2161 23.2868 17.2939 25.2958L22.9591 33.5362C24.1329 32.7292 25.4607 32.304 27.1025 32.304V22.304ZM17.2533 25.3239C14.431 27.3056 12.3164 30.0059 10.844 33.2234L19.937 37.3846C20.7686 35.5675 21.8113 34.3424 22.9997 33.5081L17.2533 25.3239ZM10.8151 33.2877C9.38025 36.5436 8.7265 40.1296 8.7265 43.944H18.7265C18.7265 41.2731 19.1821 39.099 19.9659 37.3203L10.8151 33.2877ZM8.7265 43.944C8.7265 48.1192 9.41495 52.0235 10.9156 55.5607L20.1214 51.6553C19.2327 49.5605 18.7265 47.0221 18.7265 43.944H8.7265ZM10.9264 55.5861C12.4216 59.057 14.5994 61.9819 17.5363 64.1552L23.4847 56.1168C22.1549 55.1327 21.0048 53.7057 20.1106 51.6299L10.9264 55.5861ZM17.5744 64.1831C20.6325 66.4018 24.1421 67.504 27.9345 67.504V57.504C26.1802 57.504 24.7405 57.0276 23.4466 56.0889L17.5744 64.1831ZM57.335 62.12L53.7689 65.6247L53.7841 65.6402L53.7995 65.6555L57.335 62.12ZM53.175 27.688L48.9567 30.3724L49.04 30.5033L49.1313 30.6289L53.175 27.688ZM50.039 27.048L49.5415 22.0728L49.5415 22.0728L50.039 27.048ZM49.143 27.112L44.6709 29.3481L46.0528 32.112H49.143V27.112ZM49.015 26.856L44.0771 26.0704L43.8248 27.656L44.5429 29.0921L49.015 26.856ZM49.463 24.04L49.8782 19.0573L45.2541 18.6719L44.5251 23.2544L49.463 24.04ZM52.343 24.168L52.1915 29.1657L52.196 29.1658L52.343 24.168ZM60.599 24.04L61.0385 29.0206L61.1109 29.0143L61.1832 29.0058L60.599 24.04ZM63.415 23.656L68.3954 24.0987L68.987 17.4426L62.4344 18.7531L63.415 23.656ZM63.159 26.536L63.8286 31.491L67.7858 30.9562L68.1394 26.9787L63.159 26.536ZM59.959 27.624L63.3376 31.3098L63.344 31.3039L63.3504 31.298L59.959 27.624ZM59.063 30.184L54.0748 29.84L54.0677 29.9439L54.0648 30.048L59.063 30.184ZM58.551 49L53.5528 48.864L53.551 48.932V49H58.551ZM77.239 59.368L80.7745 62.9035L80.7949 62.8832L80.8149 62.8627L77.239 59.368ZM79.991 51.304H84.991V51.2727L84.9906 51.2415L79.991 51.304ZM79.799 39.656L74.7999 39.7531L74.8 39.754L79.799 39.656ZM79.607 30.44L84.6055 30.3181L84.6035 30.2364L84.5989 30.1548L79.607 30.44ZM79.031 27.624L74.7435 30.1965L74.8989 30.4554L75.0842 30.6937L79.031 27.624ZM75.639 27.048L75.2555 22.0627L75.2555 22.0627L75.639 27.048ZM74.487 27.112L70.0149 29.3481L71.3968 32.112H74.487V27.112ZM74.359 26.856L69.4211 26.0704L69.1688 27.656L69.8869 29.0921L74.359 26.856ZM74.807 24.04L75.2222 19.0573L70.5981 18.6719L69.8691 23.2544L74.807 24.04ZM77.687 24.168L77.5355 29.1657L77.54 29.1658L77.687 24.168ZM85.687 24.04L86.1845 29.0152L86.2558 29.0081L86.3269 28.9989L85.687 24.04ZM88.247 23.656L93.2274 24.0987L93.8323 17.2929L87.1624 18.7751L88.247 23.656ZM87.991 26.536L88.6518 31.4921L92.6172 30.9634L92.9714 26.9787L87.991 26.536ZM85.111 27.176L86.7927 31.8847L86.8809 31.8532L86.9679 31.8184L85.111 27.176ZM83.895 28.2L88.3671 30.4361L88.4085 30.3533L88.4468 30.269L83.895 28.2ZM79.415 62.12L82.7116 65.8793L82.7278 65.8651L82.7439 65.8507L79.415 62.12ZM67.703 60.768C64.1312 60.768 62.1057 59.8197 60.8705 58.5845L53.7995 65.6555C57.4283 69.2843 62.3148 70.768 67.703 70.768V60.768ZM60.9011 58.6153C59.6419 57.3341 58.687 55.2489 58.687 51.624H48.687C48.687 57.0445 50.1641 61.9566 53.7689 65.6247L60.9011 58.6153ZM58.687 51.624V30.44H48.687V51.624H58.687ZM58.687 30.44C58.687 29.5776 58.6353 28.6772 58.4746 27.8135C58.3266 27.0178 58.0142 25.841 57.2187 24.7471L49.1313 30.6289C48.8846 30.2896 48.7624 30.0019 48.7085 29.8559C48.6529 29.7053 48.6397 29.6228 48.6433 29.6425C48.6462 29.658 48.6583 29.7302 48.6689 29.8728C48.6794 30.0132 48.687 30.2002 48.687 30.44H58.687ZM57.3933 25.0036C55.6814 22.3135 52.7752 21.984 51.319 21.984V31.984C51.4159 31.984 51.1545 32.0022 50.7137 31.835C50.2116 31.6445 49.49 31.2105 48.9567 30.3724L57.3933 25.0036ZM51.319 21.984C50.7254 21.984 50.1326 22.0137 49.5415 22.0728L50.5365 32.0232C50.7987 31.997 51.0593 31.984 51.319 31.984V21.984ZM49.5415 22.0728C49.357 22.0913 49.2257 22.1025 49.1387 22.1087C49.0961 22.1118 49.0737 22.1129 49.0679 22.1132C49.059 22.1136 49.0879 22.112 49.143 22.112V32.112C49.5923 32.112 50.1179 32.0651 50.5365 32.0232L49.5415 22.0728ZM53.6151 24.8759L53.4871 24.6199L44.5429 29.0921L44.6709 29.3481L53.6151 24.8759ZM53.9529 27.6416L54.4009 24.8256L44.5251 23.2544L44.0771 26.0704L53.9529 27.6416ZM49.0478 29.0227C49.7103 29.0779 50.7966 29.1234 52.1915 29.1657L52.4944 19.1703C51.0734 19.1272 50.2397 19.0874 49.8782 19.0573L49.0478 29.0227ZM52.196 29.1658C53.6956 29.2099 55.1953 29.232 56.695 29.232V19.232C55.2934 19.232 53.8917 19.2114 52.49 19.1702L52.196 29.1658ZM56.695 29.232C58.026 29.232 59.4778 29.1584 61.0385 29.0206L60.1595 19.0593C58.8189 19.1776 57.668 19.232 56.695 19.232V29.232ZM61.1832 29.0058C62.5839 28.841 63.734 28.6912 64.3956 28.5589L62.4344 18.7531C62.4349 18.753 62.4305 18.7539 62.4205 18.7557C62.4106 18.7576 62.3967 18.7601 62.3783 18.7632C62.3411 18.7697 62.2913 18.7779 62.2271 18.7879C62.0978 18.8081 61.9288 18.8328 61.7154 18.8618C61.2881 18.9201 60.724 18.9908 60.0148 19.0742L61.1832 29.0058ZM58.4346 23.2133L58.1786 26.0933L68.1394 26.9787L68.3954 24.0987L58.4346 23.2133ZM62.4894 21.581C60.8066 21.8084 58.349 22.3056 56.5676 23.95L63.3504 31.298C63.123 31.5079 62.9329 31.621 62.8449 31.6685C62.7556 31.7167 62.7256 31.7219 62.7845 31.7019C62.841 31.6827 62.9533 31.649 63.1348 31.6095C63.3147 31.5704 63.5438 31.5294 63.8286 31.491L62.4894 21.581ZM56.5804 23.9382C54.6141 25.7406 54.1853 28.238 54.0748 29.84L64.0511 30.528C64.0736 30.2025 64.1119 30.1489 64.0703 30.2678C64.0269 30.3918 63.8452 30.8445 63.3376 31.3098L56.5804 23.9382ZM54.0648 30.048L53.5528 48.864L63.5491 49.136L64.0611 30.32L54.0648 30.048ZM53.551 49C53.551 53.8686 54.5994 58.4015 57.4202 61.8782L65.1858 55.5778C64.3372 54.5319 63.551 52.5794 63.551 49H53.551ZM57.4202 61.8782C60.3854 65.533 64.5892 67.12 69.239 67.12V57.12C66.9768 57.12 65.89 56.4457 65.1858 55.5778L57.4202 61.8782ZM69.239 67.12C73.5883 67.12 77.7124 65.9657 80.7745 62.9035L73.7035 55.8325C73.0963 56.4397 71.887 57.12 69.239 57.12V67.12ZM80.8149 62.8627C83.8338 59.7736 84.991 55.6612 84.991 51.304H74.991C74.991 53.9441 74.3136 55.2077 73.6631 55.8733L80.8149 62.8627ZM84.9906 51.2415C84.9478 47.8136 84.8835 43.9188 84.798 39.558L74.8 39.754C74.8851 44.0972 74.9489 47.9677 74.9914 51.3665L84.9906 51.2415ZM84.7981 39.5589C84.7127 35.1646 84.6485 32.0813 84.6055 30.3181L74.6085 30.5619C74.6508 32.2974 74.7146 35.358 74.7999 39.7531L84.7981 39.5589ZM84.5989 30.1548C84.5491 29.2848 84.4609 28.4123 84.2976 27.614C84.1689 26.9851 83.8668 25.6974 82.9778 24.5543L75.0842 30.6937C74.9021 30.4595 74.7801 30.251 74.7027 30.1022C74.6243 29.9516 74.5752 29.8305 74.5472 29.755C74.4944 29.6128 74.4869 29.5517 74.5004 29.618C74.5122 29.6756 74.5329 29.7948 74.5552 29.9905C74.5772 30.1832 74.5981 30.4261 74.6151 30.7252L84.5989 30.1548ZM83.3185 25.0515C81.5865 22.1649 78.4215 21.984 77.239 21.984V31.984C77.3838 31.984 77.1432 32.0077 76.7093 31.8527C76.2237 31.6793 75.3586 31.2216 74.7435 30.1965L83.3185 25.0515ZM77.239 21.984C76.5886 21.984 75.927 22.0111 75.2555 22.0627L76.0225 32.0333C76.4604 31.9996 76.8654 31.984 77.239 31.984V21.984ZM75.2555 22.0627C74.9994 22.0824 74.8025 22.0956 74.6576 22.1037C74.4975 22.1126 74.4557 22.112 74.487 22.112V32.112C74.917 32.112 75.4794 32.075 76.0225 32.0333L75.2555 22.0627ZM78.9591 24.8759L78.8311 24.6199L69.8869 29.0921L70.0149 29.3481L78.9591 24.8759ZM79.2969 27.6416L79.7449 24.8256L69.8691 23.2544L69.4211 26.0704L79.2969 27.6416ZM74.3918 29.0227C75.0543 29.0779 76.1406 29.1234 77.5355 29.1657L77.8384 19.1703C76.4174 19.1272 75.5837 19.0874 75.2222 19.0573L74.3918 29.0227ZM77.54 29.1658C79.0396 29.2099 80.5393 29.232 82.039 29.232V19.232C80.6374 19.232 79.2357 19.2114 77.834 19.1702L77.54 29.1658ZM82.039 29.232C83.375 29.232 84.758 29.1578 86.1845 29.0152L85.1895 19.0648C84.056 19.1782 83.007 19.232 82.039 19.232V29.232ZM86.3269 28.9989C87.5917 28.8357 88.684 28.6809 89.3316 28.5369L87.1624 18.7751C87.1761 18.772 87.1377 18.7807 87.0215 18.8007C86.9131 18.8194 86.7669 18.8429 86.5773 18.8713C86.1975 18.9283 85.6906 18.9981 85.0471 19.0811L86.3269 28.9989ZM83.2666 23.2133L83.0106 26.0933L92.9714 26.9787L93.2274 24.0987L83.2666 23.2133ZM87.3302 21.5799C85.9304 21.7665 84.4785 22.0438 83.2541 22.5336L86.9679 31.8184C86.9566 31.8229 87.0778 31.7756 87.3957 31.7049C87.7001 31.6373 88.1129 31.564 88.6518 31.4921L87.3302 21.5799ZM83.4293 22.4673C81.8707 23.0239 80.2407 24.1565 79.3432 26.131L88.4468 30.269C88.2371 30.7304 87.9294 31.1221 87.5797 31.4166C87.2462 31.6974 86.9479 31.8293 86.7927 31.8847L83.4293 22.4673ZM79.4229 25.9639C78.6758 27.458 78.575 29.0789 78.575 30.184H88.575C88.575 30.0577 88.5788 29.9635 88.5833 29.8977C88.5879 29.8311 88.5924 29.8047 88.5912 29.8122C88.5902 29.8184 88.5807 29.8768 88.5518 29.9748C88.5234 30.0716 88.4682 30.2338 88.3671 30.4361L79.4229 25.9639ZM78.575 30.184V51.688H88.575V30.184H78.575ZM78.575 51.688C78.575 55.0616 77.5797 57.0565 76.0861 58.3893L82.7439 65.8507C86.7969 62.2342 88.575 57.2744 88.575 51.688H78.575ZM76.1184 58.3607C74.5436 59.7417 71.9695 60.768 67.703 60.768V70.768C73.5059 70.768 78.7397 69.3623 82.7116 65.8793L76.1184 58.3607Z" fill="#8539E8" mask="url(#path-1-outside-1_17_33)"/>
</g>
<defs>
<filter id="filter0_d_17_33" x="4.22247" y="23.464" width="88.0245" height="50.304" filterUnits="userSpaceOnUse" color-interpolation-filters="sRGB">
<feFlood flood-opacity="0" result="BackgroundImageFix"/>
<feColorMatrix in="SourceAlpha" type="matrix" values="0 0 0 0 0 0 0 0 0 0 0 0 0 0 0 0 0 0 127 0" result="hardAlpha"/>
<feOffset dy="4"/>
<feGaussianBlur stdDeviation="2"/>
<feComposite in2="hardAlpha" operator="out"/>
<feColorMatrix type="matrix" values="0 0 0 0 0 0 0 0 0 0 0 0 0 0 0 0 0 0 0.25 0"/>
<feBlend mode="normal" in2="BackgroundImageFix" result="effect1_dropShadow_17_33"/>
<feBlend mode="normal" in="SourceGraphic" in2="effect1_dropShadow_17_33" result="shape"/>
</filter>
</defs>
</svg>
