<svg width="73" height="73" viewBox="0 0 73 73" fill="none" xmlns="http://www.w3.org/2000/svg">
<circle cx="36.5" cy="36.5" r="36.5" fill="#8539E8"/>
<path d="M18.25 21.5312C18.25 20.979 18.6977 20.5312 19.25 20.5312H53.75C54.3023 20.5312 54.75 20.979 54.75 21.5312V26.375C54.75 26.9273 54.3023 27.375 53.75 27.375H19.25C18.6977 27.375 18.25 26.9273 18.25 26.375V21.5312Z" fill="black"/>
<path d="M18.25 32.9375C18.25 32.3852 18.6977 31.9375 19.25 31.9375H53.75C54.3023 31.9375 54.75 32.3852 54.75 32.9375V37.7813C54.75 38.3335 54.3023 38.7812 53.75 38.7812H19.25C18.6977 38.7812 18.25 38.3335 18.25 37.7813V32.9375Z" fill="black"/>
<path d="M18.25 44.3437C18.25 43.7915 18.6977 43.3438 19.25 43.3438H53.75C54.3023 43.3438 54.75 43.7915 54.75 44.3437V49.1875C54.75 49.7398 54.3023 50.1875 53.75 50.1875H19.25C18.6977 50.1875 18.25 49.7398 18.25 49.1875V44.3437Z" fill="black"/>
</svg>
