<svg width="73" height="73" viewBox="0 0 73 73" fill="none" xmlns="http://www.w3.org/2000/svg">
<path fill-rule="evenodd" clip-rule="evenodd" d="M69 36.5C69 54.4493 54.4493 69 36.5 69C18.5507 69 4 54.4493 4 36.5C4 18.5507 18.5507 4 36.5 4C54.4493 4 69 18.5507 69 36.5ZM73 36.5C73 56.6584 56.6584 73 36.5 73C16.3416 73 0 56.6584 0 36.5C0 16.3416 16.3416 0 36.5 0C56.6584 0 73 16.3416 73 36.5ZM19.25 20.5312C18.6977 20.5312 18.25 20.979 18.25 21.5312V26.375C18.25 26.9273 18.6977 27.375 19.25 27.375H53.75C54.3023 27.375 54.75 26.9273 54.75 26.375V21.5312C54.75 20.979 54.3023 20.5312 53.75 20.5312H19.25ZM18.25 44.3438C18.25 43.7915 18.6977 43.3438 19.25 43.3438H53.75C54.3023 43.3438 54.75 43.7915 54.75 44.3438V49.1875C54.75 49.7398 54.3023 50.1875 53.75 50.1875H19.25C18.6977 50.1875 18.25 49.7398 18.25 49.1875V44.3438ZM19.25 31.9375C18.6977 31.9375 18.25 32.3852 18.25 32.9375V37.7812C18.25 38.3335 18.6977 38.7812 19.25 38.7812H53.75C54.3023 38.7812 54.75 38.3335 54.75 37.7812V32.9375C54.75 32.3852 54.3023 31.9375 53.75 31.9375H19.25Z" fill="#9747FF"/>
</svg>
